<?xml version="1.0" encoding="UTF-8" standalone="no"?>
<svg width="15px" height="15px" viewBox="0 0 15 15" version="1.1" xmlns="http://www.w3.org/2000/svg" xmlns:xlink="http://www.w3.org/1999/xlink">
    <!-- Generator: Sketch 3.8.2 (29753) - http://www.bohemiancoding.com/sketch -->
    <title>Group 3</title>
    <desc>Created with Sketch.</desc>
    <defs></defs>
    <g id="ワイヤー" stroke="none" stroke-width="1" fill="none" fill-rule="evenodd">
        <g id="ホーム" transform="translate(-270.000000, -65.000000)" fill="#B1B9C0">
            <g id="Group-3" transform="translate(270.000000, 65.000000)">
                <path d="M14.4145385,0.356076923 C14.1798462,0.121384615 13.86,0.000230769231 13.5306923,0 C13.2006923,0.00484615385 12.8896154,0.136384615 12.6535385,0.371307692 L12.0890769,0.935076923 C12.0867692,0.937846154 12.0856154,0.940846154 12.0835385,0.943153846 L4.71992308,8.286 C4.69592308,8.31 4.68346154,8.33976923 4.66592308,8.36746154 C4.63569231,8.40253846 4.60938462,8.44061538 4.59046154,8.484 L3.83953846,10.2147692 C3.76476923,10.3878462 3.80053846,10.5886154 3.93115385,10.725 C4.02161538,10.8196154 4.14507692,10.8706154 4.27176923,10.8706154 C4.32738462,10.8706154 4.38392308,10.8606923 4.43769231,10.8403846 L6.24323077,10.1612308 C6.29330769,10.1425385 6.33692308,10.113 6.37684615,10.08 C6.40592308,10.0615385 6.43730769,10.0476923 6.46153846,10.0234615 L13.8542308,2.65153846 C13.8556154,2.65015385 13.8560769,2.64830769 13.8576923,2.64692308 L14.3979231,2.10923077 C14.8866923,1.62207692 14.8940769,0.835384615 14.4145385,0.356076923 L14.4145385,0.356076923 Z M6.12876923,9.02746154 L5.71869231,8.61830769 L12.4458462,1.91007692 L12.8556923,2.31923077 L6.12876923,9.02746154 L6.12876923,9.02746154 Z M13.7326154,1.44507692 L13.5212308,1.65553846 L13.1095385,1.245 L13.3197692,1.035 C13.3809231,0.974076923 13.4603077,0.940153846 13.5440769,0.939 C13.6234615,0.937153846 13.6947692,0.966461538 13.7478462,1.01930769 C13.8611538,1.13238462 13.8537692,1.32369231 13.7326154,1.44507692 L13.7326154,1.44507692 Z" id="Shape"></path>
                <path d="M13.4893846,5.13530769 C13.2290769,5.13530769 13.0186154,5.34553846 13.0186154,5.60469231 L13.0186154,13.3610769 C13.0186154,13.6197692 12.8074615,13.8302308 12.5478462,13.8302308 L1.41230769,13.8302308 C1.15246154,13.8302308 0.941538462,13.6197692 0.941538462,13.3610769 L0.941538462,2.25853846 C0.941538462,1.99984615 1.15246154,1.78915385 1.41230769,1.78915385 L9.12069231,1.78915385 C9.38076923,1.78915385 9.59146154,1.57892308 9.59146154,1.31976923 C9.59146154,1.06061538 9.38076923,0.850384615 9.12069231,0.850384615 L1.41230769,0.850384615 C0.633461538,0.850384615 0,1.482 0,2.25853846 L0,13.3610769 C0,14.1376154 0.633461538,14.7692308 1.41230769,14.7692308 L12.5478462,14.7692308 C13.3264615,14.7692308 13.9601538,14.1376154 13.9601538,13.3610769 L13.9601538,5.60469231 C13.9601538,5.34553846 13.7494615,5.13530769 13.4893846,5.13530769 L13.4893846,5.13530769 Z" id="Shape"></path>
            </g>
        </g>
    </g>
</svg>